<?xml version="1.0" standalone="no"?>
<!DOCTYPE svg PUBLIC "-//W3C//DTD SVG 20010904//EN"
 "http://www.w3.org/TR/2001/REC-SVG-20010904/DTD/svg10.dtd">
<svg version="1.0" xmlns="http://www.w3.org/2000/svg"
 width="100.000000pt" height="100.000000pt" viewBox="0 0 100.000000 100.000000"
 preserveAspectRatio="xMidYMid meet">
<metadata>
Created by potrace 1.14, written by Peter Selinger 2001-2017
</metadata>
<g transform="translate(0.000000,100.000000) scale(0.100000,-0.100000)"
fill="#000000" stroke="none">
<path d="M526 920 c9 -53 -11 -60 -75 -24 -43 23 -58 26 -102 21 -28 -4 -54
-9 -57 -12 -3 -3 5 -16 18 -30 36 -38 21 -55 -48 -55 -52 0 -64 -4 -106 -36
-47 -36 -50 -49 -11 -56 13 -2 21 -12 23 -28 2 -21 -6 -30 -48 -53 -50 -27
-65 -48 -77 -109 -5 -26 -4 -27 26 -18 21 6 33 5 38 -3 13 -20 10 -30 -18 -82
-25 -45 -27 -55 -18 -99 5 -27 11 -51 12 -53 2 -2 16 7 32 19 27 21 28 21 41
3 8 -10 14 -41 14 -68 0 -40 6 -57 31 -88 34 -43 46 -48 56 -21 3 9 10 22 15
29 14 18 48 -7 73 -53 13 -25 33 -42 63 -55 64 -28 71 -26 65 21 -7 49 9 52
74 15 44 -27 108 -32 146 -13 18 9 18 11 -2 32 -39 41 -23 56 58 56 40 0 56 6
95 36 46 35 52 54 17 54 -9 0 -22 5 -29 12 -17 17 2 44 52 73 31 18 49 37 60
66 24 60 22 69 -19 62 -49 -8 -54 14 -18 79 27 48 29 57 21 103 -5 27 -11 52
-14 54 -2 2 -15 -6 -29 -19 -43 -40 -60 -17 -55 75 1 21 -10 45 -35 78 -36 47
-55 53 -55 18 0 -23 -23 -43 -42 -36 -7 3 -25 26 -38 52 -20 37 -35 50 -78 69
-29 13 -55 24 -57 24 -3 0 -2 -18 1 -40z"/>
</g>
</svg>
